<mxfile host="app.diagrams.net" modified="2021-10-10T04:22:11.330Z" agent="5.0 (Windows NT 10.0; Win64; x64) AppleWebKit/537.36 (KHTML, like Gecko) Chrome/94.0.4606.71 Safari/537.36 Edg/94.0.992.38" etag="TeMzc3kXR3hLkXkxIhSG" version="15.4.1" type="github">
  <diagram id="iIivdMnJmohIFITj2dAG" name="第 1 页">
    <mxGraphModel dx="972" dy="619" grid="1" gridSize="10" guides="1" tooltips="1" connect="1" arrows="1" fold="1" page="1" pageScale="1" pageWidth="827" pageHeight="1169" math="0" shadow="0">
      <root>
        <mxCell id="0" />
        <mxCell id="1" parent="0" />
        <mxCell id="h2WGAbgKxKcxYjbuZjyC-4" style="edgeStyle=orthogonalEdgeStyle;rounded=0;orthogonalLoop=1;jettySize=auto;html=1;exitX=0.5;exitY=1;exitDx=0;exitDy=0;exitPerimeter=0;entryX=0.5;entryY=0;entryDx=0;entryDy=0;" edge="1" parent="1" source="h2WGAbgKxKcxYjbuZjyC-1" target="h2WGAbgKxKcxYjbuZjyC-2">
          <mxGeometry relative="1" as="geometry" />
        </mxCell>
        <mxCell id="h2WGAbgKxKcxYjbuZjyC-1" value="开始" style="strokeWidth=2;html=1;shape=mxgraph.flowchart.start_1;whiteSpace=wrap;" vertex="1" parent="1">
          <mxGeometry x="359" y="220" width="100" height="60" as="geometry" />
        </mxCell>
        <mxCell id="h2WGAbgKxKcxYjbuZjyC-21" style="edgeStyle=none;rounded=0;orthogonalLoop=1;jettySize=auto;html=1;exitX=0.5;exitY=1;exitDx=0;exitDy=0;entryX=0.5;entryY=0;entryDx=0;entryDy=0;" edge="1" parent="1" source="h2WGAbgKxKcxYjbuZjyC-2" target="h2WGAbgKxKcxYjbuZjyC-20">
          <mxGeometry relative="1" as="geometry" />
        </mxCell>
        <mxCell id="h2WGAbgKxKcxYjbuZjyC-2" value="从本地选择图片并上传" style="rounded=1;whiteSpace=wrap;html=1;absoluteArcSize=1;arcSize=14;strokeWidth=2;" vertex="1" parent="1">
          <mxGeometry x="339" y="320" width="140" height="50" as="geometry" />
        </mxCell>
        <mxCell id="h2WGAbgKxKcxYjbuZjyC-6" value="选择去云或去雾&lt;br&gt;算法模型" style="strokeWidth=2;html=1;shape=mxgraph.flowchart.decision;whiteSpace=wrap;" vertex="1" parent="1">
          <mxGeometry x="359" y="501" width="100" height="100" as="geometry" />
        </mxCell>
        <mxCell id="h2WGAbgKxKcxYjbuZjyC-7" value="" style="strokeWidth=2;html=1;shape=mxgraph.flowchart.annotation_2;align=left;labelPosition=right;pointerEvents=1;rotation=90;" vertex="1" parent="1">
          <mxGeometry x="375.1" y="556.28" width="66.75" height="154.19" as="geometry" />
        </mxCell>
        <mxCell id="h2WGAbgKxKcxYjbuZjyC-11" value="对图像进行&lt;br&gt;去云处理" style="rounded=1;whiteSpace=wrap;html=1;absoluteArcSize=1;arcSize=14;strokeWidth=2;" vertex="1" parent="1">
          <mxGeometry x="285" y="668" width="100" height="60" as="geometry" />
        </mxCell>
        <mxCell id="h2WGAbgKxKcxYjbuZjyC-13" value="对图像进行&lt;br&gt;去雾处理" style="rounded=1;whiteSpace=wrap;html=1;absoluteArcSize=1;arcSize=14;strokeWidth=2;" vertex="1" parent="1">
          <mxGeometry x="441.85" y="668" width="100" height="60" as="geometry" />
        </mxCell>
        <mxCell id="h2WGAbgKxKcxYjbuZjyC-15" value="去云模型" style="text;html=1;strokeColor=none;fillColor=none;align=center;verticalAlign=middle;whiteSpace=wrap;rounded=0;" vertex="1" parent="1">
          <mxGeometry x="299" y="601" width="60" height="30" as="geometry" />
        </mxCell>
        <mxCell id="h2WGAbgKxKcxYjbuZjyC-16" value="去雾模型" style="text;html=1;strokeColor=none;fillColor=none;align=center;verticalAlign=middle;whiteSpace=wrap;rounded=0;" vertex="1" parent="1">
          <mxGeometry x="455" y="601" width="60" height="30" as="geometry" />
        </mxCell>
        <mxCell id="h2WGAbgKxKcxYjbuZjyC-18" style="edgeStyle=none;rounded=0;orthogonalLoop=1;jettySize=auto;html=1;exitX=0;exitY=0.5;exitDx=0;exitDy=0;exitPerimeter=0;" edge="1" parent="1" source="h2WGAbgKxKcxYjbuZjyC-17">
          <mxGeometry relative="1" as="geometry">
            <mxPoint x="409" y="811" as="targetPoint" />
          </mxGeometry>
        </mxCell>
        <mxCell id="h2WGAbgKxKcxYjbuZjyC-17" value="" style="strokeWidth=2;html=1;shape=mxgraph.flowchart.annotation_1;align=left;pointerEvents=1;rotation=-90;" vertex="1" parent="1">
          <mxGeometry x="384" y="673" width="50" height="160" as="geometry" />
        </mxCell>
        <mxCell id="h2WGAbgKxKcxYjbuZjyC-24" style="edgeStyle=none;rounded=0;orthogonalLoop=1;jettySize=auto;html=1;exitX=0.5;exitY=1;exitDx=0;exitDy=0;entryX=0.5;entryY=0;entryDx=0;entryDy=0;entryPerimeter=0;" edge="1" parent="1" source="h2WGAbgKxKcxYjbuZjyC-19" target="h2WGAbgKxKcxYjbuZjyC-23">
          <mxGeometry relative="1" as="geometry" />
        </mxCell>
        <mxCell id="h2WGAbgKxKcxYjbuZjyC-19" value="返回去云或去雾后的&lt;br&gt;结果图像" style="rounded=1;whiteSpace=wrap;html=1;absoluteArcSize=1;arcSize=14;strokeWidth=2;" vertex="1" parent="1">
          <mxGeometry x="339" y="811" width="140" height="50" as="geometry" />
        </mxCell>
        <mxCell id="h2WGAbgKxKcxYjbuZjyC-22" style="edgeStyle=none;rounded=0;orthogonalLoop=1;jettySize=auto;html=1;exitX=0.5;exitY=1;exitDx=0;exitDy=0;entryX=0.5;entryY=0;entryDx=0;entryDy=0;entryPerimeter=0;" edge="1" parent="1" source="h2WGAbgKxKcxYjbuZjyC-20" target="h2WGAbgKxKcxYjbuZjyC-6">
          <mxGeometry relative="1" as="geometry" />
        </mxCell>
        <mxCell id="h2WGAbgKxKcxYjbuZjyC-20" value="图片预处理" style="rounded=1;whiteSpace=wrap;html=1;absoluteArcSize=1;arcSize=14;strokeWidth=2;" vertex="1" parent="1">
          <mxGeometry x="338.47" y="410" width="140" height="50" as="geometry" />
        </mxCell>
        <mxCell id="h2WGAbgKxKcxYjbuZjyC-23" value="结束" style="strokeWidth=2;html=1;shape=mxgraph.flowchart.terminator;whiteSpace=wrap;" vertex="1" parent="1">
          <mxGeometry x="358" y="890" width="100" height="60" as="geometry" />
        </mxCell>
      </root>
    </mxGraphModel>
  </diagram>
</mxfile>
